#Comment line ignore any data following # character 
#Hierarchical Translation and Rotation (.htr) file 
[Header]	
#Header keywords are followed by a single value 
FileType HTR		#Single word string
DataType HTRS		#Translation followed by rotation and scale data
FileVersion 1		#integer
NumSegments 84		#integer
NumFrames 2		#integer
DataFrameRate 30		#integer, data frame rate in this file
EulerRotationOrder ZYX
CalibrationUnits mm
RotationUnits Degrees
GlobalAxisofGravity Y
BoneLengthAxis Y
ScaleFactor 1.00
[SegmentNames&Hierarchy]
#CHILD	PARENT
MASTER GLOBAL
root MASTER
chest root
L_mid_tent01 root
R_mid_tent01 root
spine01 root
Bip01_Neck chest
L_humerus chest
R_humerus chest
weapon_bone chest
Bip01_Head Bip01_Neck
eye_left_bone Bip01_Head
eye_right_bone Bip01_Head
L_forearm L_humerus
L_front_hand L_forearm
L_weapon_bone L_forearm
L_front_hand01_01 L_front_hand
L_front_hand02_01 L_front_hand
L_front_hand03_01 L_front_hand
L_front_hand01_02 L_front_hand01_01
L_front_hand02_02 L_front_hand02_01
L_front_hand03_02 L_front_hand03_01
R_forearm R_humerus
R_front_hand R_forearm
R_weapon_bone R_forearm
R_front_hand01_01 R_front_hand
R_front_hand02_01 R_front_hand
R_front_hand03_01 R_front_hand
R_front_hand01_02 R_front_hand01_01
R_front_hand02_02 R_front_hand02_01
R_front_hand03_02 R_front_hand03_01
null_rope01_connect L_mid_tent01
Rope1_Seg01 null_rope01_connect
Rope1_Seg02 Rope1_Seg01
Rope1_Seg03 Rope1_Seg02
Rope1_Seg04 Rope1_Seg03
Rope1_Seg05 Rope1_Seg04
Rope1_Seg06 Rope1_Seg05
Rope1_Seg07 Rope1_Seg06
Rope1_Seg09 Rope1_Seg07
L_mid_hand01 Rope1_Seg09
L_mid_hand02 Rope1_Seg09
L_mid_hand03 Rope1_Seg09
null_rope02_connect R_mid_tent01
Rope2_Seg01 null_rope02_connect
Rope2_Seg02 Rope2_Seg01
Rope2_Seg03 Rope2_Seg02
Rope2_Seg04 Rope2_Seg03
Rope2_Seg05 Rope2_Seg04
Rope2_Seg06 Rope2_Seg05
Rope2_Seg07 Rope2_Seg06
Rope2_Seg09 Rope2_Seg07
R_mid_hand01 Rope2_Seg09
R_mid_hand02 Rope2_Seg09
R_mid_hand03 Rope2_Seg09
spine02 spine01
spine03 spine02
pelvis spine03
null_rope03_connect pelvis
null_rope04_connect pelvis
Rope3_Seg01 null_rope03_connect
Rope3_Seg02 Rope3_Seg01
Rope3_Seg03 Rope3_Seg02
Rope3_Seg04 Rope3_Seg03
Rope3_Seg05 Rope3_Seg04
Rope3_Seg06 Rope3_Seg05
Rope3_Seg07 Rope3_Seg06
Rope3_Seg08 Rope3_Seg07
Rope3_Seg09 Rope3_Seg08
R_rear_hand01 Rope3_Seg09
R_rear_hand02 Rope3_Seg09
R_rear_hand03 Rope3_Seg09
Rope4_Seg01 null_rope04_connect
Rope4_Seg02 Rope4_Seg01
Rope4_Seg03 Rope4_Seg02
Rope4_Seg04 Rope4_Seg03
Rope4_Seg05 Rope4_Seg04
Rope4_Seg06 Rope4_Seg05
Rope4_Seg07 Rope4_Seg06
Rope4_Seg08 Rope4_Seg07
Rope4_Seg09 Rope4_Seg08
L_rear_hand01 Rope4_Seg09
L_rear_hand02 Rope4_Seg09
L_rear_hand03 Rope4_Seg09
[BasePosition]
#SegmentName Tx, Ty, Tz, Rx, Ry, Rz, BoneLength
MASTER 0.000000 0.000000 0.000000 -90.000000 0.000000 0.000000 10.000000 
root 0.000000 0.000000 0.000000 0.000000 0.000000 0.000000 10.000000 
chest 0.000000 0.000000 0.000000 0.000000 0.000000 0.000000 10.000000 
L_mid_tent01 0.000000 0.000000 0.000000 0.000000 0.000000 0.000000 10.000000 
R_mid_tent01 0.000000 0.000000 0.000000 0.000000 0.000000 0.000000 10.000000 
spine01 0.000000 0.000000 0.000000 0.000000 0.000000 0.000000 10.000000 
Bip01_Neck 0.000000 0.000000 0.000000 0.000000 0.000000 0.000000 10.000000 
L_humerus 0.000000 0.000000 0.000000 0.000000 0.000000 0.000000 10.000000 
R_humerus 0.000000 0.000000 0.000000 0.000000 0.000000 0.000000 10.000000 
weapon_bone 0.000000 0.000000 0.000000 0.000000 0.000000 0.000000 10.000000 
Bip01_Head 0.000000 0.000000 0.000000 0.000000 0.000000 0.000000 10.000000 
eye_left_bone 0.000000 0.000000 0.000000 0.000000 0.000000 0.000000 10.000000 
eye_right_bone 0.000000 0.000000 0.000000 0.000000 0.000000 0.000000 10.000000 
L_forearm 0.000000 0.000000 0.000000 0.000000 0.000000 0.000000 10.000000 
L_front_hand 0.000000 0.000000 0.000000 0.000000 0.000000 0.000000 10.000000 
L_weapon_bone 0.000000 0.000000 0.000000 0.000000 0.000000 0.000000 10.000000 
L_front_hand01_01 0.000000 0.000000 0.000000 0.000000 0.000000 0.000000 10.000000 
L_front_hand02_01 0.000000 0.000000 0.000000 0.000000 0.000000 0.000000 10.000000 
L_front_hand03_01 0.000000 0.000000 0.000000 0.000000 0.000000 0.000000 10.000000 
L_front_hand01_02 0.000000 0.000000 0.000000 0.000000 0.000000 0.000000 10.000000 
L_front_hand02_02 0.000000 0.000000 0.000000 0.000000 0.000000 0.000000 10.000000 
L_front_hand03_02 0.000000 0.000000 0.000000 0.000000 0.000000 0.000000 10.000000 
R_forearm 0.000000 0.000000 0.000000 0.000000 0.000000 0.000000 10.000000 
R_front_hand 0.000000 0.000000 0.000000 0.000000 0.000000 0.000000 10.000000 
R_weapon_bone 0.000000 0.000000 0.000000 0.000000 0.000000 0.000000 10.000000 
R_front_hand01_01 0.000000 0.000000 0.000000 0.000000 0.000000 0.000000 10.000000 
R_front_hand02_01 0.000000 0.000000 0.000000 0.000000 0.000000 0.000000 10.000000 
R_front_hand03_01 0.000000 0.000000 0.000000 0.000000 0.000000 0.000000 10.000000 
R_front_hand01_02 0.000000 0.000000 0.000000 0.000000 0.000000 0.000000 10.000000 
R_front_hand02_02 0.000000 0.000000 0.000000 0.000000 0.000000 0.000000 10.000000 
R_front_hand03_02 0.000000 0.000000 0.000000 0.000000 0.000000 0.000000 10.000000 
null_rope01_connect 0.000000 0.000000 0.000000 0.000000 0.000000 0.000000 10.000000 
Rope1_Seg01 0.000000 0.000000 0.000000 0.000000 0.000000 0.000000 10.000000 
Rope1_Seg02 0.000000 0.000000 0.000000 0.000000 0.000000 0.000000 10.000000 
Rope1_Seg03 0.000000 0.000000 0.000000 0.000000 0.000000 0.000000 10.000000 
Rope1_Seg04 0.000000 0.000000 0.000000 0.000000 0.000000 0.000000 10.000000 
Rope1_Seg05 0.000000 0.000000 0.000000 0.000000 0.000000 0.000000 10.000000 
Rope1_Seg06 0.000000 0.000000 0.000000 0.000000 0.000000 0.000000 10.000000 
Rope1_Seg07 0.000000 0.000000 0.000000 0.000000 0.000000 0.000000 10.000000 
Rope1_Seg09 0.000000 0.000000 0.000000 0.000000 0.000000 0.000000 10.000000 
L_mid_hand01 0.000000 0.000000 0.000000 0.000000 0.000000 0.000000 10.000000 
L_mid_hand02 0.000000 0.000000 0.000000 0.000000 0.000000 0.000000 10.000000 
L_mid_hand03 0.000000 0.000000 0.000000 0.000000 0.000000 0.000000 10.000000 
null_rope02_connect 0.000000 0.000000 0.000000 0.000000 0.000000 0.000000 10.000000 
Rope2_Seg01 0.000000 0.000000 0.000000 0.000000 0.000000 0.000000 10.000000 
Rope2_Seg02 0.000000 0.000000 0.000000 0.000000 0.000000 0.000000 10.000000 
Rope2_Seg03 0.000000 0.000000 0.000000 0.000000 0.000000 0.000000 10.000000 
Rope2_Seg04 0.000000 0.000000 0.000000 0.000000 0.000000 0.000000 10.000000 
Rope2_Seg05 0.000000 0.000000 0.000000 0.000000 0.000000 0.000000 10.000000 
Rope2_Seg06 0.000000 0.000000 0.000000 0.000000 0.000000 0.000000 10.000000 
Rope2_Seg07 0.000000 0.000000 0.000000 0.000000 0.000000 0.000000 10.000000 
Rope2_Seg09 0.000000 0.000000 0.000000 0.000000 0.000000 0.000000 10.000000 
R_mid_hand01 0.000000 0.000000 0.000000 0.000000 0.000000 0.000000 10.000000 
R_mid_hand02 0.000000 0.000000 0.000000 0.000000 0.000000 0.000000 10.000000 
R_mid_hand03 0.000000 0.000000 0.000000 0.000000 0.000000 0.000000 10.000000 
spine02 0.000000 0.000000 0.000000 0.000000 0.000000 0.000000 10.000000 
spine03 0.000000 0.000000 0.000000 0.000000 0.000000 0.000000 10.000000 
pelvis 0.000000 0.000000 0.000000 0.000000 0.000000 0.000000 10.000000 
null_rope03_connect 0.000000 0.000000 0.000000 0.000000 0.000000 0.000000 10.000000 
null_rope04_connect 0.000000 0.000000 0.000000 0.000000 0.000000 0.000000 10.000000 
Rope3_Seg01 0.000000 0.000000 0.000000 0.000000 0.000000 0.000000 10.000000 
Rope3_Seg02 0.000000 0.000000 0.000000 0.000000 0.000000 0.000000 10.000000 
Rope3_Seg03 0.000000 0.000000 0.000000 0.000000 0.000000 0.000000 10.000000 
Rope3_Seg04 0.000000 0.000000 0.000000 0.000000 0.000000 0.000000 10.000000 
Rope3_Seg05 0.000000 0.000000 0.000000 0.000000 0.000000 0.000000 10.000000 
Rope3_Seg06 0.000000 0.000000 0.000000 0.000000 0.000000 0.000000 10.000000 
Rope3_Seg07 0.000000 0.000000 0.000000 0.000000 0.000000 0.000000 10.000000 
Rope3_Seg08 0.000000 0.000000 0.000000 0.000000 0.000000 0.000000 10.000000 
Rope3_Seg09 0.000000 0.000000 0.000000 0.000000 0.000000 0.000000 10.000000 
R_rear_hand01 0.000000 0.000000 0.000000 0.000000 0.000000 0.000000 10.000000 
R_rear_hand02 0.000000 0.000000 0.000000 0.000000 0.000000 0.000000 10.000000 
R_rear_hand03 0.000000 0.000000 0.000000 0.000000 0.000000 0.000000 10.000000 
Rope4_Seg01 0.000000 0.000000 0.000000 0.000000 0.000000 0.000000 10.000000 
Rope4_Seg02 0.000000 0.000000 0.000000 0.000000 0.000000 0.000000 10.000000 
Rope4_Seg03 0.000000 0.000000 0.000000 0.000000 0.000000 0.000000 10.000000 
Rope4_Seg04 0.000000 0.000000 0.000000 0.000000 0.000000 0.000000 10.000000 
Rope4_Seg05 0.000000 0.000000 0.000000 0.000000 0.000000 0.000000 10.000000 
Rope4_Seg06 0.000000 0.000000 0.000000 0.000000 0.000000 0.000000 10.000000 
Rope4_Seg07 0.000000 0.000000 0.000000 0.000000 0.000000 0.000000 10.000000 
Rope4_Seg08 0.000000 0.000000 0.000000 0.000000 0.000000 0.000000 10.000000 
Rope4_Seg09 0.000000 0.000000 0.000000 0.000000 0.000000 0.000000 10.000000 
L_rear_hand01 0.000000 0.000000 0.000000 0.000000 0.000000 0.000000 10.000000 
L_rear_hand02 0.000000 0.000000 0.000000 0.000000 0.000000 0.000000 10.000000 
L_rear_hand03 0.000000 0.000000 0.000000 0.000000 0.000000 0.000000 10.000000 
#Beginning of Data. Separated by tabs
#Fr	Tx	Ty	Tz	Rx	Ry	Rz	SF
[MASTER]
20 -0.000619 4186.819336 0.000000 0.001660 0.001660 0.001660 4186.819336
21 -0.000657 4438.317871 0.000000 0.001660 0.001660 0.001660 4438.317871
[root]
20 -116.849678 325.151825 1432.305542 -96.821815 5.207622 -75.153008 1473.389648
21 -125.154320 347.874603 1496.135498 -98.285774 4.426661 -75.203201 1541.136475
[chest]
20 -84.512650 -34.090519 0.000000 5.048371 -2.994666 -179.380966 91.129311
21 -84.512650 -34.090519 0.000000 5.865076 -2.779535 -178.276474 91.129311
[L_mid_tent01]
20 27.299334 22.178484 -249.918564 -28.605080 12.374348 13.438506 252.381516
21 27.299326 22.178535 -249.918594 -26.446314 14.790765 14.467715 252.381546
[R_mid_tent01]
20 23.228794 24.509907 226.238495 85.556778 -26.567350 167.162033 228.744751
21 23.228794 24.509907 226.238495 83.096687 -25.393036 171.018311 228.744751
[spine01]
20 -0.361383 -0.195265 0.000000 0.398987 0.162928 19.764990 0.410763
21 -0.361383 -0.195265 0.000000 0.375865 0.153317 19.891264 0.410763
[Bip01_Neck]
20 165.484543 71.581718 0.000119 175.896118 1.177290 24.871183 180.302734
21 165.484543 71.581718 0.000119 175.896118 1.177290 24.871183 180.302734
[L_humerus]
20 -13.983130 -135.272980 -120.471481 -3.405091 65.579254 86.151215 181.680161
21 -13.983130 -135.272980 -120.471481 -3.501360 65.789810 86.045486 181.680161
[R_humerus]
20 -13.983309 -135.273102 125.287651 85.682007 -18.052544 1.042980 184.909012
21 -13.983309 -135.273102 125.287651 83.931625 -23.892979 2.973440 184.909012
[weapon_bone]
20 235.964890 -300.705902 0.000000 0.000000 -89.951546 -128.212341 382.234833
21 235.964890 -300.705902 0.000000 0.000000 -89.951546 -128.212341 382.234833
[Bip01_Head]
20 214.275528 179.460022 -6.514478 -43.655388 5.845809 -62.453903 279.575287
21 216.032120 183.901840 -7.161641 -45.547268 5.845059 -62.457203 283.797546
[eye_left_bone]
20 -24.626970 125.451866 -64.772606 0.000000 -90.000000 -99.840431 143.318359
21 -24.626970 125.451866 -64.772606 0.000000 -90.000000 -99.840431 143.318359
[eye_right_bone]
20 -24.626970 125.451866 64.327362 0.000000 -89.960434 80.159386 143.117676
21 -24.626970 125.451866 64.327362 0.000000 -89.960434 80.159386 143.117676
[L_forearm]
20 322.776093 0.000000 -0.000119 0.000289 -0.002329 -104.139328 322.776093
21 322.776093 0.000000 -0.000119 0.000294 -0.002329 -104.413200 322.776093
[L_front_hand]
20 241.149185 -0.042021 -3.300071 -178.667953 -1.835447 -27.422350 241.171753
21 241.149185 -0.042021 -3.300071 -178.667953 -1.835447 -27.422342 241.171753
[L_weapon_bone]
20 156.183838 0.000000 0.000000 0.000014 0.000007 0.000001 156.183838
21 156.183838 0.000000 0.000000 0.000014 0.000007 0.000001 156.183838
[L_front_hand01_01]
20 86.095154 20.947098 -0.655860 -0.366594 -0.477154 75.385574 88.609184
21 86.095154 20.947098 -0.655860 -0.366594 -0.477154 75.385574 88.609184
[L_front_hand02_01]
20 86.935165 -11.437475 24.513514 154.403519 -59.888931 -61.371990 91.046425
21 86.935165 -11.437475 24.513514 154.403519 -59.888931 -61.371990 91.046425
[L_front_hand03_01]
20 86.637497 -14.123976 -20.424902 -153.913849 58.118122 -62.702866 90.126129
21 86.637497 -14.123976 -20.424902 -153.913849 58.118122 -62.702866 90.126129
[L_front_hand01_02]
20 71.020905 -0.000179 0.000030 0.000334 -0.002323 -106.379684 71.020905
21 71.020905 -0.000179 0.000030 0.000334 -0.002323 -106.379684 71.020905
[L_front_hand02_02]
20 71.020927 -0.000119 0.000060 0.000334 -0.002323 -106.379684 71.020927
21 71.020927 -0.000119 0.000060 0.000334 -0.002323 -106.379684 71.020927
[L_front_hand03_02]
20 71.020905 -0.000060 0.000060 0.000334 -0.002323 -106.379684 71.020905
21 71.020905 -0.000060 0.000060 0.000334 -0.002323 -106.379684 71.020905
[R_forearm]
20 322.776428 -0.000060 0.000030 -0.021138 -0.210357 4.330195 322.776428
21 322.776428 -0.000060 0.000030 -0.011802 -0.210836 1.940470 322.776428
[R_front_hand]
20 238.847015 -0.006795 2.210259 -111.954979 1.645293 -6.435598 238.857239
21 238.847015 -0.006795 2.210259 -40.206936 2.482663 -4.178692 238.857239
[R_weapon_bone]
20 155.664093 0.002503 -0.000030 0.003487 0.001180 -90.988930 155.664078
21 155.664093 0.002503 -0.000030 0.003487 0.001180 -90.988930 155.664078
[R_front_hand01_01]
20 87.624611 14.231146 22.918642 -116.960205 3.496175 -1.323883 91.683487
21 87.624611 14.231146 22.918642 -154.633514 -59.950634 61.746063 91.683487
[R_front_hand02_01]
20 89.356956 14.367283 -19.491137 118.419624 -4.256595 0.610096 92.579636
21 89.356956 14.367283 -19.491137 154.602676 58.302864 63.744400 92.579636
[R_front_hand03_01]
20 87.286232 -22.307278 -0.143439 -0.387967 -0.231466 4.231439 90.091743
21 87.286232 -22.307278 -0.143439 0.162155 -0.423168 -75.767921 90.091743
[R_front_hand01_02]
20 71.020905 0.000060 0.000119 0.001777 0.001534 8.377881 71.020905
21 71.020905 0.000060 0.000119 0.002323 -0.000334 106.381714 71.020905
[R_front_hand02_02]
20 71.020844 -0.000030 -0.000119 0.001777 0.001534 8.377881 71.020836
21 71.020844 -0.000030 -0.000119 0.002323 -0.000334 106.381714 71.020836
[R_front_hand03_02]
20 71.020905 0.000000 0.000030 0.001777 0.001534 8.377881 71.020905
21 71.020905 0.000000 0.000030 0.002323 -0.000334 106.381714 71.020905
[null_rope01_connect]
20 328.732483 0.000000 -0.000238 163.011322 -50.234634 -89.471878 328.732483
21 328.732483 0.000000 -0.000238 167.161621 -50.916634 -93.957092 328.732483
[Rope1_Seg01]
20 0.000000 0.000000 0.000000 73.699646 -2.164742 -133.595337 0.000000
21 0.000000 0.000000 0.000000 70.280258 -5.741144 -132.929642 0.000000
[Rope1_Seg02]
20 139.999863 -0.000179 0.000000 17.303707 -21.395676 0.281705 139.999863
21 139.999863 -0.000179 0.000000 13.684490 -19.330286 1.404383 139.999863
[Rope1_Seg03]
20 139.999924 0.000060 -0.000060 3.052533 -26.076551 12.808778 139.999924
21 139.999924 0.000060 -0.000060 3.809592 -28.762367 11.780822 139.999924
[Rope1_Seg04]
20 139.999924 -0.000060 -0.000119 -0.710853 -20.515276 9.378367 139.999924
21 139.999924 -0.000060 -0.000119 -1.541128 -20.562902 10.701171 139.999924
[Rope1_Seg05]
20 139.999832 0.000119 -0.000060 -23.852512 -52.171238 11.770222 139.999832
21 139.999832 0.000119 -0.000060 -20.754587 -42.452240 16.086153 139.999832
[Rope1_Seg06]
20 139.999954 0.000119 -0.000060 -26.269894 -26.743185 -4.573764 139.999954
21 139.999954 0.000119 -0.000060 -38.066437 -31.877054 1.154523 139.999954
[Rope1_Seg07]
20 139.999985 0.000060 0.000000 -9.337244 -6.399213 -4.461543 139.999985
21 139.999985 0.000060 0.000000 -14.850604 -7.643002 -5.332026 139.999985
[Rope1_Seg09]
20 121.602913 0.000119 -0.000089 -89.793175 -1.359789 0.847147 121.602913
21 121.602913 0.000119 -0.000089 -89.793175 -1.359789 0.847147 121.602913
[L_mid_hand01]
20 103.859421 1.038730 8.195221 114.519135 -53.312950 -20.621319 104.187431
21 103.859421 1.038730 8.195221 114.519081 -53.313076 -20.621222 104.187431
[L_mid_hand02]
20 105.572853 -4.139662 -10.864139 -155.067673 38.166626 -52.448818 106.211075
21 105.572853 -4.139662 -10.864139 -155.067673 38.166626 -52.448818 106.211075
[L_mid_hand03]
20 104.641464 17.579376 -3.913581 -10.970130 15.317461 57.626949 106.179977
21 104.641464 17.579376 -3.913581 -10.970130 15.317461 57.626949 106.179977
[null_rope02_connect]
20 328.732849 0.000179 -0.000119 -170.050568 0.088139 79.742599 328.732849
21 328.732849 0.000179 -0.000119 -172.309662 -0.088979 80.827888 328.732849
[Rope2_Seg01]
20 0.000049 0.000348 0.000113 -41.495785 11.647752 70.764496 0.000369
21 0.000052 0.000363 0.000111 -40.652519 9.860946 75.026016 0.000383
[Rope2_Seg02]
20 139.999741 -0.000060 -0.000119 -0.264845 1.140926 -1.430390 139.999756
21 139.999741 -0.000060 -0.000119 0.062470 2.435658 -0.862704 139.999756
[Rope2_Seg03]
20 140.000107 0.000030 0.000000 -0.060403 1.153656 -0.760627 140.000107
21 140.000107 0.000030 0.000000 0.113815 2.574418 -0.732878 140.000107
[Rope2_Seg04]
20 139.999802 0.000000 -0.000060 -0.062541 0.847057 -0.656596 139.999802
21 139.999802 0.000000 -0.000060 0.288225 3.415601 -0.345994 139.999802
[Rope2_Seg05]
20 139.999985 -0.000060 0.000119 -0.444206 -0.652544 -1.613142 139.999985
21 139.999985 -0.000060 0.000119 -0.377468 0.218711 -1.685601 139.999985
[Rope2_Seg06]
20 139.999893 -0.000030 -0.000119 -0.489132 -0.979620 -1.606582 139.999893
21 139.999893 -0.000030 -0.000119 -0.619928 -1.785128 -2.016791 139.999893
[Rope2_Seg07]
20 139.999893 0.000060 -0.000060 -0.287029 -0.391348 -0.912331 139.999893
21 139.999893 0.000060 -0.000060 -0.348904 -0.560687 -1.134174 139.999893
[Rope2_Seg09]
20 121.338966 0.000089 -0.000060 -111.457184 0.547391 -1.505709 121.338966
21 121.338966 0.000089 -0.000060 -28.679514 0.545860 -1.505949 121.338966
[R_mid_hand01]
20 104.680779 11.144459 -10.335981 -25.489689 41.487061 56.986717 105.778534
21 104.680779 11.144459 -10.335981 -27.802685 40.146809 53.454399 105.778534
[R_mid_hand02]
20 104.070427 2.443552 8.231699 61.107300 -59.107700 25.876715 104.424065
21 104.070427 2.443552 8.231699 63.327015 -56.459332 23.257946 104.424065
[R_mid_hand03]
20 106.028137 -11.221827 -5.996406 -174.261520 14.759502 -65.764908 106.788818
21 106.028137 -11.221827 -5.996406 -173.486588 14.440212 -62.692635 106.788818
[spine02]
20 129.756927 0.001550 0.000119 -0.315026 -15.091544 -3.938545 129.756927
21 129.756927 0.001550 0.000119 -0.338820 -15.186267 -3.810735 129.756927
[spine03]
20 78.560989 0.092966 -5.415633 1.903828 3.838308 17.066219 78.747482
21 78.563919 0.092320 -5.386930 1.900779 3.818781 17.063185 78.748444
[pelvis]
20 169.435242 0.051022 0.000000 -0.058910 -0.367401 8.053714 169.435257
21 169.435242 0.051022 0.000000 -0.059017 -0.353784 8.394348 169.435257
[null_rope03_connect]
20 -1.257226 -2.466202 137.391083 94.507225 -64.481697 -50.978970 137.418976
21 -1.257226 -2.466202 137.391083 98.000473 -64.182404 -54.209202 137.418976
[null_rope04_connect]
20 -1.259640 -2.480268 -137.844437 94.507225 -64.481697 -50.978970 137.872513
21 -1.259640 -2.480268 -137.844437 98.000473 -64.182404 -54.209202 137.872513
[Rope3_Seg01]
20 0.000037 -0.000332 0.000000 -129.779480 -3.635148 -88.241394 0.000334
21 0.000035 -0.000347 0.000000 -129.598312 -9.467950 -85.062164 0.000349
[Rope3_Seg02]
20 139.999924 -0.000119 0.000060 0.175502 -5.458265 -5.410591 139.999924
21 139.999924 -0.000119 0.000060 0.455476 -6.738459 -6.424289 139.999924
[Rope3_Seg03]
20 139.999924 -0.000119 0.000119 1.257189 -10.139011 -10.192740 139.999924
21 139.999924 -0.000119 0.000119 3.763967 -15.890487 -15.595795 139.999924
[Rope3_Seg04]
20 139.999924 0.000119 0.000000 6.481909 -19.006710 -20.768221 139.999924
21 139.999924 0.000119 0.000000 24.117790 -28.489687 -32.032204 139.999924
[Rope3_Seg05]
20 139.999924 -0.000238 0.000060 14.270193 -18.748108 -19.194452 139.999924
21 139.999924 -0.000238 0.000060 88.313538 -24.665030 -12.122948 139.999924
[Rope3_Seg06]
20 139.999893 -0.000119 -0.000060 72.163399 -21.590923 -10.856385 139.999893
21 139.999893 -0.000119 -0.000060 34.964016 -11.431726 30.660454 139.999893
[Rope3_Seg07]
20 139.999771 0.000060 -0.000119 50.973087 -23.174038 28.837223 139.999771
21 139.999771 0.000060 -0.000119 6.305520 6.123104 21.843790 139.999771
[Rope3_Seg08]
20 139.999985 -0.000060 0.000000 5.722956 4.113600 16.670040 139.999985
21 139.999985 -0.000060 0.000000 1.581776 2.914779 8.093547 139.999985
[Rope3_Seg09]
20 90.185997 -0.000179 -0.000060 75.902420 -1.358945 -0.844523 90.185997
21 90.185997 -0.000179 -0.000060 79.535660 -1.359328 -0.845998 90.185997
[R_rear_hand01]
20 103.366196 -6.073594 -10.757982 -156.049316 6.070419 -2.795869 104.101845
21 103.366196 -6.073594 -10.757982 -156.049316 6.070419 -2.795869 104.101845
[R_rear_hand02]
20 100.509819 12.039542 -7.992327 -38.708439 1.958052 5.461187 101.543350
21 100.509819 12.039542 -7.992327 -38.708424 1.958050 5.461185 101.543350
[R_rear_hand03]
20 101.539970 5.215704 5.435467 84.307625 -2.361032 4.099037 101.819031
21 101.539970 5.215704 5.435467 84.307625 -2.361032 4.099037 101.819031
[Rope4_Seg01]
20 0.000076 -0.000571 0.000000 42.661930 -11.814265 -83.960419 0.000576
21 0.000075 -0.000607 0.000000 44.415573 -10.517081 -89.786194 0.000612
[Rope4_Seg02]
20 139.999985 0.000060 0.000119 -2.336791 -7.409330 6.665141 139.999985
21 139.999985 0.000060 0.000119 -1.785047 -5.573876 8.336053 139.999985
[Rope4_Seg03]
20 139.999924 0.000000 -0.000238 -2.410234 -10.676259 9.049452 139.999924
21 139.999924 0.000000 -0.000238 -2.686522 -9.018945 12.948526 139.999924
[Rope4_Seg04]
20 139.999985 0.000000 0.000119 -1.331046 -13.097495 10.319017 139.999985
21 139.999985 0.000000 0.000119 -2.886169 -12.652560 16.809504 139.999985
[Rope4_Seg05]
20 139.999802 -0.000060 -0.000119 0.517295 -10.254972 7.886726 139.999802
21 139.999802 -0.000060 -0.000119 -0.837538 -10.220344 12.794711 139.999802
[Rope4_Seg06]
20 139.999924 0.000000 0.000060 1.977596 -12.123950 10.716701 139.999924
21 139.999924 0.000000 0.000060 -0.093921 -10.812624 15.482599 139.999924
[Rope4_Seg07]
20 139.999802 0.000000 0.000000 5.949775 -24.324480 26.956112 139.999802
21 139.999802 0.000000 0.000000 -0.642370 -17.711739 29.706730 139.999802
[Rope4_Seg08]
20 139.999924 0.000000 0.000119 6.364394 -13.303212 21.088024 139.999924
21 139.999924 0.000000 0.000119 -0.158101 -9.646104 17.764977 139.999924
[Rope4_Seg09]
20 90.185791 0.000060 0.000060 -135.617828 2.228885 0.850567 90.185791
21 90.185791 0.000060 0.000060 -135.617828 2.228885 0.850567 90.185791
[L_rear_hand01]
20 101.696655 -8.392275 -7.654577 -19.915020 -33.950905 119.950104 102.329041
21 101.696655 -8.392275 -7.654577 -19.915020 -33.950905 119.950104 102.329041
[L_rear_hand02]
20 102.726799 -1.568258 5.773216 77.862221 61.878510 165.399200 102.900848
21 102.726799 -1.568258 5.773216 77.862221 61.878510 165.399200 102.900848
[L_rear_hand03]
20 104.552910 9.721220 -10.420293 -173.099182 -23.740307 -117.327896 105.519653
21 104.552910 9.721220 -10.420293 -173.099182 -23.740307 -117.327896 105.519653
